# xmcd
#
# Track frame offsets: 
#        150
#        22657
#        65960
#        99870
#        132545
#        171397
#
# Disc length: 2629 seconds
#
# Revision: 2
# Processed by: cddbd v1.5.2PL0 Copyright (c) Steve Scherf et al.
# Submitted via: ExactAudioCopy v0.95b3
#
DISCID=4d0a4306
DTITLE=The Horace Silver Quitet Plus J.J. Johnson - The Cape Verdean B
DTITLE=lues
DYEAR=1965
DGENRE=Jazz
TTITLE0=The Cape Verdean Blues
TTITLE1=The African Queen
TTITLE2=Pretty Eyes
TTITLE3=Nutville
TTITLE4=Bonita
TTITLE5=Mo' Joe
EXTD=\t
EXTT0=
EXTT1=
EXTT2=
EXTT3=
EXTT4=
EXTT5=
PLAYORDER=
